* splicemonitor: JSON:{ "#name": "splice_information_table", "#nodes": [ { "#name": "metadata", "first_ts_packet": 2000, "last_ts_packet": 2000, "pid": 1280 }, { "#name": "splice_null" } ], "protocol_version": 0, "pts_adjustment": 0, "tier": 4095 }
* splicemonitor: JSON:{ "#name": "splice_information_table", "#nodes": [ { "#name": "metadata", "first_ts_packet": 4001, "last_ts_packet": 4001, "pid": 1280 }, { "#name": "bandwidth_reservation" } ], "protocol_version": 0, "pts_adjustment": 0, "tier": 4095 }
* splicemonitor: JSON:{ "#name": "splice_information_table", "#nodes": [ { "#name": "metadata", "first_ts_packet": 6002, "last_ts_packet": 6002, "pid": 1280 }, { "#name": "time_signal", "pts_time": 123456789 } ], "protocol_version": 0, "pts_adjustment": 0, "tier": 4095 }
* splicemonitor: JSON:{ "#name": "event", "event-id": 305419896, "event-type": "out", "packet-index": 8003, "progress": "immediate", "splice-pid": 1280, "tag": "" }
* splicemonitor: JSON:{ "#name": "splice_information_table", "#nodes": [ { "#name": "metadata", "first_ts_packet": 8003, "last_ts_packet": 8003, "pid": 1280 }, { "#name": "splice_insert", "avail_num": 0, "avails_expected": 0, "out_of_network": true, "splice_event_cancel": false, "splice_event_id": 305419896, "splice_immediate": true, "unique_program_id": 26505 } ], "protocol_version": 0, "pts_adjustment": 0, "tier": 4095 }
* splicemonitor: JSON:{ "#name": "splice_information_table", "#nodes": [ { "#name": "metadata", "first_ts_packet": 10004, "last_ts_packet": 10004, "pid": 1280 }, { "#name": "splice_schedule", "#nodes": [ { "#name": "splice_event", "splice_event_cancel": true, "splice_event_id": 2022777605 } ] } ], "protocol_version": 0, "pts_adjustment": 0, "tier": 4095 }
* splicemonitor: JSON:{ "#name": "splice_information_table", "#nodes": [ { "#name": "metadata", "first_ts_packet": 12005, "last_ts_packet": 12005, "pid": 1280 }, { "#name": "splice_null" } ], "protocol_version": 0, "pts_adjustment": 0, "tier": 4095 }
* splicemonitor: JSON:{ "#name": "splice_information_table", "#nodes": [ { "#name": "metadata", "first_ts_packet": 14006, "last_ts_packet": 14006, "pid": 1280 }, { "#name": "bandwidth_reservation" } ], "protocol_version": 0, "pts_adjustment": 0, "tier": 4095 }
* splicemonitor: JSON:{ "#name": "splice_information_table", "#nodes": [ { "#name": "metadata", "first_ts_packet": 16007, "last_ts_packet": 16007, "pid": 1280 }, { "#name": "time_signal", "pts_time": 123456789 } ], "protocol_version": 0, "pts_adjustment": 0, "tier": 4095 }
* splicemonitor: JSON:{ "#name": "event", "event-id": 305419896, "event-type": "out", "packet-index": 18008, "progress": "immediate", "splice-pid": 1280, "tag": "" }
* splicemonitor: JSON:{ "#name": "splice_information_table", "#nodes": [ { "#name": "metadata", "first_ts_packet": 18008, "last_ts_packet": 18008, "pid": 1280 }, { "#name": "splice_insert", "avail_num": 0, "avails_expected": 0, "out_of_network": true, "splice_event_cancel": false, "splice_event_id": 305419896, "splice_immediate": true, "unique_program_id": 26505 } ], "protocol_version": 0, "pts_adjustment": 0, "tier": 4095 }
* splicemonitor: JSON:{ "#name": "splice_information_table", "#nodes": [ { "#name": "metadata", "first_ts_packet": 20009, "last_ts_packet": 20009, "pid": 1280 }, { "#name": "splice_schedule", "#nodes": [ { "#name": "splice_event", "splice_event_cancel": true, "splice_event_id": 2022777605 } ] } ], "protocol_version": 0, "pts_adjustment": 0, "tier": 4095 }
* splicemonitor: JSON:{ "#name": "splice_information_table", "#nodes": [ { "#name": "metadata", "first_ts_packet": 22010, "last_ts_packet": 22010, "pid": 1280 }, { "#name": "splice_null" } ], "protocol_version": 0, "pts_adjustment": 0, "tier": 4095 }
* splicemonitor: JSON:{ "#name": "splice_information_table", "#nodes": [ { "#name": "metadata", "first_ts_packet": 24011, "last_ts_packet": 24011, "pid": 1280 }, { "#name": "bandwidth_reservation" } ], "protocol_version": 0, "pts_adjustment": 0, "tier": 4095 }
* splicemonitor: JSON:{ "#name": "splice_information_table", "#nodes": [ { "#name": "metadata", "first_ts_packet": 26012, "last_ts_packet": 26012, "pid": 1280 }, { "#name": "time_signal", "pts_time": 123456789 } ], "protocol_version": 0, "pts_adjustment": 0, "tier": 4095 }
* splicemonitor: JSON:{ "#name": "event", "event-id": 305419896, "event-type": "out", "packet-index": 28013, "progress": "immediate", "splice-pid": 1280, "tag": "" }
* splicemonitor: JSON:{ "#name": "splice_information_table", "#nodes": [ { "#name": "metadata", "first_ts_packet": 28013, "last_ts_packet": 28013, "pid": 1280 }, { "#name": "splice_insert", "avail_num": 0, "avails_expected": 0, "out_of_network": true, "splice_event_cancel": false, "splice_event_id": 305419896, "splice_immediate": true, "unique_program_id": 26505 } ], "protocol_version": 0, "pts_adjustment": 0, "tier": 4095 }
* splicemonitor: JSON:{ "#name": "splice_information_table", "#nodes": [ { "#name": "metadata", "first_ts_packet": 30014, "last_ts_packet": 30014, "pid": 1280 }, { "#name": "splice_schedule", "#nodes": [ { "#name": "splice_event", "splice_event_cancel": true, "splice_event_id": 2022777605 } ] } ], "protocol_version": 0, "pts_adjustment": 0, "tier": 4095 }
* splicemonitor: JSON:{ "#name": "splice_information_table", "#nodes": [ { "#name": "metadata", "first_ts_packet": 32015, "last_ts_packet": 32015, "pid": 1280 }, { "#name": "splice_null" } ], "protocol_version": 0, "pts_adjustment": 0, "tier": 4095 }
* splicemonitor: JSON:{ "#name": "splice_information_table", "#nodes": [ { "#name": "metadata", "first_ts_packet": 34016, "last_ts_packet": 34016, "pid": 1280 }, { "#name": "bandwidth_reservation" } ], "protocol_version": 0, "pts_adjustment": 0, "tier": 4095 }
* splicemonitor: JSON:{ "#name": "splice_information_table", "#nodes": [ { "#name": "metadata", "first_ts_packet": 36017, "last_ts_packet": 36017, "pid": 1280 }, { "#name": "time_signal", "pts_time": 123456789 } ], "protocol_version": 0, "pts_adjustment": 0, "tier": 4095 }
* splicemonitor: JSON:{ "#name": "event", "event-id": 305419896, "event-type": "out", "packet-index": 38018, "progress": "immediate", "splice-pid": 1280, "tag": "" }
* splicemonitor: JSON:{ "#name": "splice_information_table", "#nodes": [ { "#name": "metadata", "first_ts_packet": 38018, "last_ts_packet": 38018, "pid": 1280 }, { "#name": "splice_insert", "avail_num": 0, "avails_expected": 0, "out_of_network": true, "splice_event_cancel": false, "splice_event_id": 305419896, "splice_immediate": true, "unique_program_id": 26505 } ], "protocol_version": 0, "pts_adjustment": 0, "tier": 4095 }
* splicemonitor: JSON:{ "#name": "splice_information_table", "#nodes": [ { "#name": "metadata", "first_ts_packet": 40019, "last_ts_packet": 40019, "pid": 1280 }, { "#name": "splice_schedule", "#nodes": [ { "#name": "splice_event", "splice_event_cancel": true, "splice_event_id": 2022777605 } ] } ], "protocol_version": 0, "pts_adjustment": 0, "tier": 4095 }
* splicemonitor: JSON:{ "#name": "splice_information_table", "#nodes": [ { "#name": "metadata", "first_ts_packet": 42020, "last_ts_packet": 42020, "pid": 1280 }, { "#name": "splice_null" } ], "protocol_version": 0, "pts_adjustment": 0, "tier": 4095 }
* splicemonitor: JSON:{ "#name": "splice_information_table", "#nodes": [ { "#name": "metadata", "first_ts_packet": 44021, "last_ts_packet": 44021, "pid": 1280 }, { "#name": "bandwidth_reservation" } ], "protocol_version": 0, "pts_adjustment": 0, "tier": 4095 }
* splicemonitor: JSON:{ "#name": "splice_information_table", "#nodes": [ { "#name": "metadata", "first_ts_packet": 46022, "last_ts_packet": 46022, "pid": 1280 }, { "#name": "time_signal", "pts_time": 123456789 } ], "protocol_version": 0, "pts_adjustment": 0, "tier": 4095 }
* splicemonitor: JSON:{ "#name": "event", "event-id": 305419896, "event-type": "out", "packet-index": 48023, "progress": "immediate", "splice-pid": 1280, "tag": "" }
* splicemonitor: JSON:{ "#name": "splice_information_table", "#nodes": [ { "#name": "metadata", "first_ts_packet": 48023, "last_ts_packet": 48023, "pid": 1280 }, { "#name": "splice_insert", "avail_num": 0, "avails_expected": 0, "out_of_network": true, "splice_event_cancel": false, "splice_event_id": 305419896, "splice_immediate": true, "unique_program_id": 26505 } ], "protocol_version": 0, "pts_adjustment": 0, "tier": 4095 }
* splicemonitor: JSON:{ "#name": "splice_information_table", "#nodes": [ { "#name": "metadata", "first_ts_packet": 50024, "last_ts_packet": 50024, "pid": 1280 }, { "#name": "splice_schedule", "#nodes": [ { "#name": "splice_event", "splice_event_cancel": true, "splice_event_id": 2022777605 } ] } ], "protocol_version": 0, "pts_adjustment": 0, "tier": 4095 }
* splicemonitor: JSON:{ "#name": "splice_information_table", "#nodes": [ { "#name": "metadata", "first_ts_packet": 52025, "last_ts_packet": 52025, "pid": 1280 }, { "#name": "splice_null" } ], "protocol_version": 0, "pts_adjustment": 0, "tier": 4095 }
* splicemonitor: JSON:{ "#name": "splice_information_table", "#nodes": [ { "#name": "metadata", "first_ts_packet": 54026, "last_ts_packet": 54026, "pid": 1280 }, { "#name": "bandwidth_reservation" } ], "protocol_version": 0, "pts_adjustment": 0, "tier": 4095 }
* splicemonitor: JSON:{ "#name": "splice_information_table", "#nodes": [ { "#name": "metadata", "first_ts_packet": 56027, "last_ts_packet": 56027, "pid": 1280 }, { "#name": "time_signal", "pts_time": 123456789 } ], "protocol_version": 0, "pts_adjustment": 0, "tier": 4095 }
* splicemonitor: JSON:{ "#name": "event", "event-id": 305419896, "event-type": "out", "packet-index": 58028, "progress": "immediate", "splice-pid": 1280, "tag": "" }
* splicemonitor: JSON:{ "#name": "splice_information_table", "#nodes": [ { "#name": "metadata", "first_ts_packet": 58028, "last_ts_packet": 58028, "pid": 1280 }, { "#name": "splice_insert", "avail_num": 0, "avails_expected": 0, "out_of_network": true, "splice_event_cancel": false, "splice_event_id": 305419896, "splice_immediate": true, "unique_program_id": 26505 } ], "protocol_version": 0, "pts_adjustment": 0, "tier": 4095 }
* splicemonitor: JSON:{ "#name": "splice_information_table", "#nodes": [ { "#name": "metadata", "first_ts_packet": 60029, "last_ts_packet": 60029, "pid": 1280 }, { "#name": "splice_schedule", "#nodes": [ { "#name": "splice_event", "splice_event_cancel": true, "splice_event_id": 2022777605 } ] } ], "protocol_version": 0, "pts_adjustment": 0, "tier": 4095 }
* splicemonitor: JSON:{ "#name": "splice_information_table", "#nodes": [ { "#name": "metadata", "first_ts_packet": 62030, "last_ts_packet": 62030, "pid": 1280 }, { "#name": "splice_null" } ], "protocol_version": 0, "pts_adjustment": 0, "tier": 4095 }
* splicemonitor: JSON:{ "#name": "splice_information_table", "#nodes": [ { "#name": "metadata", "first_ts_packet": 64031, "last_ts_packet": 64031, "pid": 1280 }, { "#name": "bandwidth_reservation" } ], "protocol_version": 0, "pts_adjustment": 0, "tier": 4095 }
* splicemonitor: JSON:{ "#name": "splice_information_table", "#nodes": [ { "#name": "metadata", "first_ts_packet": 66032, "last_ts_packet": 66032, "pid": 1280 }, { "#name": "time_signal", "pts_time": 123456789 } ], "protocol_version": 0, "pts_adjustment": 0, "tier": 4095 }
* splicemonitor: JSON:{ "#name": "event", "event-id": 305419896, "event-type": "out", "packet-index": 68033, "progress": "immediate", "splice-pid": 1280, "tag": "" }
* splicemonitor: JSON:{ "#name": "splice_information_table", "#nodes": [ { "#name": "metadata", "first_ts_packet": 68033, "last_ts_packet": 68033, "pid": 1280 }, { "#name": "splice_insert", "avail_num": 0, "avails_expected": 0, "out_of_network": true, "splice_event_cancel": false, "splice_event_id": 305419896, "splice_immediate": true, "unique_program_id": 26505 } ], "protocol_version": 0, "pts_adjustment": 0, "tier": 4095 }
* splicemonitor: JSON:{ "#name": "splice_information_table", "#nodes": [ { "#name": "metadata", "first_ts_packet": 70034, "last_ts_packet": 70034, "pid": 1280 }, { "#name": "splice_schedule", "#nodes": [ { "#name": "splice_event", "splice_event_cancel": true, "splice_event_id": 2022777605 } ] } ], "protocol_version": 0, "pts_adjustment": 0, "tier": 4095 }
* splicemonitor: JSON:{ "#name": "splice_information_table", "#nodes": [ { "#name": "metadata", "first_ts_packet": 72035, "last_ts_packet": 72035, "pid": 1280 }, { "#name": "splice_null" } ], "protocol_version": 0, "pts_adjustment": 0, "tier": 4095 }
* splicemonitor: JSON:{ "#name": "splice_information_table", "#nodes": [ { "#name": "metadata", "first_ts_packet": 74036, "last_ts_packet": 74036, "pid": 1280 }, { "#name": "bandwidth_reservation" } ], "protocol_version": 0, "pts_adjustment": 0, "tier": 4095 }
* splicemonitor: JSON:{ "#name": "splice_information_table", "#nodes": [ { "#name": "metadata", "first_ts_packet": 76037, "last_ts_packet": 76037, "pid": 1280 }, { "#name": "time_signal", "pts_time": 123456789 } ], "protocol_version": 0, "pts_adjustment": 0, "tier": 4095 }
* splicemonitor: JSON:{ "#name": "event", "event-id": 305419896, "event-type": "out", "packet-index": 78038, "progress": "immediate", "splice-pid": 1280, "tag": "" }
* splicemonitor: JSON:{ "#name": "splice_information_table", "#nodes": [ { "#name": "metadata", "first_ts_packet": 78038, "last_ts_packet": 78038, "pid": 1280 }, { "#name": "splice_insert", "avail_num": 0, "avails_expected": 0, "out_of_network": true, "splice_event_cancel": false, "splice_event_id": 305419896, "splice_immediate": true, "unique_program_id": 26505 } ], "protocol_version": 0, "pts_adjustment": 0, "tier": 4095 }
* splicemonitor: JSON:{ "#name": "splice_information_table", "#nodes": [ { "#name": "metadata", "first_ts_packet": 80039, "last_ts_packet": 80039, "pid": 1280 }, { "#name": "splice_schedule", "#nodes": [ { "#name": "splice_event", "splice_event_cancel": true, "splice_event_id": 2022777605 } ] } ], "protocol_version": 0, "pts_adjustment": 0, "tier": 4095 }
* splicemonitor: JSON:{ "#name": "splice_information_table", "#nodes": [ { "#name": "metadata", "first_ts_packet": 82040, "last_ts_packet": 82040, "pid": 1280 }, { "#name": "splice_null" } ], "protocol_version": 0, "pts_adjustment": 0, "tier": 4095 }
* splicemonitor: JSON:{ "#name": "splice_information_table", "#nodes": [ { "#name": "metadata", "first_ts_packet": 84041, "last_ts_packet": 84041, "pid": 1280 }, { "#name": "bandwidth_reservation" } ], "protocol_version": 0, "pts_adjustment": 0, "tier": 4095 }
* splicemonitor: JSON:{ "#name": "splice_information_table", "#nodes": [ { "#name": "metadata", "first_ts_packet": 86042, "last_ts_packet": 86042, "pid": 1280 }, { "#name": "time_signal", "pts_time": 123456789 } ], "protocol_version": 0, "pts_adjustment": 0, "tier": 4095 }
* splicemonitor: JSON:{ "#name": "event", "event-id": 305419896, "event-type": "out", "packet-index": 88043, "progress": "immediate", "splice-pid": 1280, "tag": "" }
* splicemonitor: JSON:{ "#name": "splice_information_table", "#nodes": [ { "#name": "metadata", "first_ts_packet": 88043, "last_ts_packet": 88043, "pid": 1280 }, { "#name": "splice_insert", "avail_num": 0, "avails_expected": 0, "out_of_network": true, "splice_event_cancel": false, "splice_event_id": 305419896, "splice_immediate": true, "unique_program_id": 26505 } ], "protocol_version": 0, "pts_adjustment": 0, "tier": 4095 }
* splicemonitor: JSON:{ "#name": "splice_information_table", "#nodes": [ { "#name": "metadata", "first_ts_packet": 90044, "last_ts_packet": 90044, "pid": 1280 }, { "#name": "splice_schedule", "#nodes": [ { "#name": "splice_event", "splice_event_cancel": true, "splice_event_id": 2022777605 } ] } ], "protocol_version": 0, "pts_adjustment": 0, "tier": 4095 }
* splicemonitor: JSON:{ "#name": "splice_information_table", "#nodes": [ { "#name": "metadata", "first_ts_packet": 92045, "last_ts_packet": 92045, "pid": 1280 }, { "#name": "splice_null" } ], "protocol_version": 0, "pts_adjustment": 0, "tier": 4095 }
* splicemonitor: JSON:{ "#name": "splice_information_table", "#nodes": [ { "#name": "metadata", "first_ts_packet": 94046, "last_ts_packet": 94046, "pid": 1280 }, { "#name": "bandwidth_reservation" } ], "protocol_version": 0, "pts_adjustment": 0, "tier": 4095 }
* splicemonitor: JSON:{ "#name": "splice_information_table", "#nodes": [ { "#name": "metadata", "first_ts_packet": 96047, "last_ts_packet": 96047, "pid": 1280 }, { "#name": "time_signal", "pts_time": 123456789 } ], "protocol_version": 0, "pts_adjustment": 0, "tier": 4095 }
* splicemonitor: JSON:{ "#name": "event", "event-id": 305419896, "event-type": "out", "packet-index": 98048, "progress": "immediate", "splice-pid": 1280, "tag": "" }
* splicemonitor: JSON:{ "#name": "splice_information_table", "#nodes": [ { "#name": "metadata", "first_ts_packet": 98048, "last_ts_packet": 98048, "pid": 1280 }, { "#name": "splice_insert", "avail_num": 0, "avails_expected": 0, "out_of_network": true, "splice_event_cancel": false, "splice_event_id": 305419896, "splice_immediate": true, "unique_program_id": 26505 } ], "protocol_version": 0, "pts_adjustment": 0, "tier": 4095 }
* splicemonitor: JSON:{ "#name": "splice_information_table", "#nodes": [ { "#name": "metadata", "first_ts_packet": 100049, "last_ts_packet": 100049, "pid": 1280 }, { "#name": "splice_schedule", "#nodes": [ { "#name": "splice_event", "splice_event_cancel": true, "splice_event_id": 2022777605 } ] } ], "protocol_version": 0, "pts_adjustment": 0, "tier": 4095 }
* splicemonitor: JSON:{ "#name": "splice_information_table", "#nodes": [ { "#name": "metadata", "first_ts_packet": 102050, "last_ts_packet": 102050, "pid": 1280 }, { "#name": "splice_null" } ], "protocol_version": 0, "pts_adjustment": 0, "tier": 4095 }
* splicemonitor: JSON:{ "#name": "splice_information_table", "#nodes": [ { "#name": "metadata", "first_ts_packet": 104051, "last_ts_packet": 104051, "pid": 1280 }, { "#name": "bandwidth_reservation" } ], "protocol_version": 0, "pts_adjustment": 0, "tier": 4095 }
* splicemonitor: JSON:{ "#name": "splice_information_table", "#nodes": [ { "#name": "metadata", "first_ts_packet": 106052, "last_ts_packet": 106052, "pid": 1280 }, { "#name": "time_signal", "pts_time": 123456789 } ], "protocol_version": 0, "pts_adjustment": 0, "tier": 4095 }
